<svg xmlns="http://www.w3.org/2000/svg" version="1.1" xmlns:xlink="http://www.w3.org/1999/xlink" xmlns:svgjs="http://svgjs.dev/svgjs" width="48" height="44"><svg id="SvgjsSvg1038" data-name="Layer 1" xmlns="http://www.w3.org/2000/svg" viewBox="0 0 48 44">
  <path d="M48,17.73c0-1.47-.7-2.83-1.88-3.62L26.24.68c-1.35-.91-3.13-.91-4.47,0L1.88,14.1c-1.18.8-1.88,2.15-1.88,3.62v22.25s0,.09,0,.13c0,.04,0,.08,0,.13v2.12c0,.91.75,1.64,1.67,1.64h16.83c.26,0,.47-.21.47-.46v-4.81c0-.25-.21-.46-.46-.46H6.23c-.26,0-.47-.21-.47-.46v-18.3c0-.68.34-1.32.91-1.71L22.69,6.99c.79-.54,1.84-.54,2.63,0l16,10.8c.57.39.91,1.03.91,1.71v18.3c0,.23-.18.42-.41.45h-6.1c-.23,0-.44-.12-.56-.31l-11.07-17.87c-.08-.12-.06-.29.04-.4.47-.48.89-.85,1.22-1.11.68-.54,1.98-1.58,3.87-2.3.61-.23,1.5-.51,1.46-.72,0-.05-.06-.08-.13-.11-.1-.04-.21-.05-.31-.04-.69.05-1.49.17-2.37.39-1.1.28-2.01.64-2.73.99h-.03c-2.79,1.35-5.42,3.23-8.06,4.82-.27.11-.4.37-.56.59-.12.15-.28.25-.47.3-1.06.26-2.17,1-2.96,1.72-.44.36-.36.9-.07,1.32.52.86,1.1,1.9,1.83,2.59.58.48,1.27-.09,1.82-.39.01,0,.03-.02.04-.02.24-.16.51-.31.7-.52.21-.26.15-.61.35-.88.4-.57.67-.92,1.36-.92.04,0,.08,0,.13,0l.44-.07c.3-.05.6.08.77.33.43.64,1.08,1.61,1.37,2.03.85,1.26,1.93,2.86,2.78,4.12l1.89,3.01,4.01,6.45,1.3,2.27c.17.29.48.48.83.48h1.1s0,0,.01,0h12.61c.92,0,1.67-.74,1.67-1.64v-2.12s0-.09,0-.13c0-.04,0-.08,0-.13v-22.25h0ZM25.19,27.4c-.45.28-1.03.14-1.31-.3l-.67-1.05c-.28-.44-.14-1.02.3-1.3.45-.28,1.03-.14,1.31.3l.67,1.05c.28.44.14,1.02-.3,1.3Z" fill="#3fb6ae"></path>
</svg><style>@media (prefers-color-scheme: light) { :root { filter: contrast(1) brightness(1); } }
@media (prefers-color-scheme: dark) { :root { filter: none; } }
</style></svg>