<?xml version="1.0" encoding="UTF-8"?>
<svg id="Layer_1" data-name="Layer 1" xmlns="http://www.w3.org/2000/svg" viewBox="0 0 83.09 77">
  <path d="M83.09,31.03c0-2.58-1.22-4.95-3.26-6.34L45.42,1.2c-2.34-1.59-5.41-1.59-7.74,0L3.26,24.68c-2.04,1.39-3.26,3.76-3.26,6.34v38.93c0,.08,0,.15.01.23,0,.07-.01.15-.01.23v3.72c0,1.59,1.29,2.87,2.89,2.87h29.14c.44,0,.81-.36.81-.81v-8.43c0-.44-.36-.8-.8-.8H10.79c-.44,0-.81-.36-.81-.81v-32.02c0-1.2.59-2.32,1.58-2.99l27.7-18.91c1.37-.94,3.18-.94,4.55,0l27.7,18.91c.99.68,1.58,1.8,1.58,2.99v32.02c0,.41-.31.74-.7.79h-10.55c-.39,0-.76-.21-.97-.54l-19.17-31.28c-.13-.22-.1-.51.08-.69.81-.85,1.54-1.49,2.12-1.95,1.17-.95,3.43-2.77,6.7-4.03,1.06-.41,2.59-.9,2.53-1.26-.01-.08-.11-.15-.23-.19-.17-.06-.36-.08-.54-.07-1.19.09-2.58.29-4.11.68-1.9.48-3.48,1.13-4.73,1.74l-.05.02c-4.83,2.33-9.38,5.62-13.95,8.42-.47.2-.68.65-.97,1.03-.2.27-.49.44-.81.52-1.83.46-3.76,1.74-5.13,3.01-.77.63-.62,1.58-.12,2.31.89,1.5,1.9,3.32,3.17,4.53,1,.84,2.21-.15,3.15-.68.02-.01.04-.03.07-.04.42-.28.89-.54,1.22-.91.37-.45.25-1.06.6-1.53.7-.99,1.16-1.61,2.35-1.61.07,0,.15,0,.22-.01l.77-.12c.52-.08,1.03.14,1.33.58.75,1.12,1.88,2.82,2.37,3.55,1.47,2.21,3.33,5,4.8,7.22l3.28,5.27,6.94,11.29,2.25,3.98c.29.52.84.83,1.43.83h1.91s.02,0,.03,0h21.84c1.6,0,2.89-1.29,2.89-2.87v-3.72c0-.08,0-.15-.01-.23,0-.08.01-.15.01-.22V31.03ZM43.61,47.95c-.77.48-1.79.25-2.27-.52l-1.15-1.84c-.48-.77-.25-1.79.52-2.27.77-.48,1.79-.25,2.27.52l1.15,1.84c.48.77.25,1.79-.52,2.27Z" fill="#fff"/>
</svg>