<?xml version="1.0" encoding="UTF-8"?>
<svg id="Layer_1" xmlns="http://www.w3.org/2000/svg" version="1.1" viewBox="0 0 66 60">
  <!-- Generator: Adobe Illustrator 29.1.0, SVG Export Plug-In . SVG Version: 2.1.0 Build 142)  -->
  <defs>
    <style>
      .st0 {
        fill: #3fb6ae;
      }
    </style>
  </defs>
  <path class="st0" d="M66,24.2c0-2-1-3.9-2.6-4.9L36.1.9c-1.9-1.2-4.3-1.2-6.2,0L2.6,19.2c-1.6,1.1-2.6,2.9-2.6,4.9v30.3c0,0,0,.1,0,.2,0,0,0,.1,0,.2v2.9c0,1.2,1,2.2,2.3,2.2h23.1c.4,0,.6-.3.6-.6v-6.6c0-.3-.3-.6-.6-.6H8.6c-.4,0-.6-.3-.6-.6v-24.9c0-.9.5-1.8,1.3-2.3l22-14.7c1.1-.7,2.5-.7,3.6,0l22,14.7c.8.5,1.3,1.4,1.3,2.3v25c0,.3-.2.6-.6.6h-8.4c-.3,0-.6-.2-.8-.4l-15.2-24.4c-.1-.2,0-.4,0-.5.6-.7,1.2-1.2,1.7-1.5.9-.7,2.7-2.2,5.3-3.1.8-.3,2.1-.7,2-1,0,0,0-.1-.2-.2-.1,0-.3,0-.4,0-.9,0-2.1.2-3.3.5-1.5.4-2.8.9-3.8,1.4h0c-3.8,1.8-7.5,4.4-11.1,6.6-.4.2-.5.5-.8.8-.2.2-.4.3-.6.4-1.5.4-3,1.4-4.1,2.3-.6.5-.5,1.2,0,1.8.7,1.2,1.5,2.6,2.5,3.5.8.7,1.8-.1,2.5-.5,0,0,0,0,0,0,.3-.2.7-.4,1-.7.3-.4.2-.8.5-1.2.6-.8.9-1.3,1.9-1.3,0,0,.1,0,.2,0h.6c.4-.2.8,0,1.1.4.6.9,1.5,2.2,1.9,2.8,1.2,1.7,2.6,3.9,3.8,5.6l2.6,4.1,5.5,8.8,1.8,3.1c.2.4.7.7,1.1.7h1.5s0,0,0,0h17.3c1.3,0,2.3-1,2.3-2.2v-2.9c0,0,0-.1,0-.2,0,0,0-.1,0-.2v-30.3h0ZM34.6,37.4c-.6.4-1.4.2-1.8-.4l-.9-1.4c-.4-.6-.2-1.4.4-1.8.6-.4,1.4-.2,1.8.4l.9,1.4c.4.6.2,1.4-.4,1.8Z"/>
</svg>